<svg width="75" height="24.000000000000004" xmlns="http://www.w3.org/2000/svg">
 <g id="Layer_1">
  <title>Layer 1</title>
  <g stroke="null">
   <g stroke="null" id="svg_1">
    <title stroke="null">Layer 1</title>
    <g stroke="null" id="svg_2">
     <g stroke="null" data-name="Capa 2" id="svg_3">
      <g stroke="null" data-name="Layer 1" id="svg_4">
       <path stroke="null" fill="#100e0f" d="m17.13408,10.43939l-5.56605,0a0.25936,0.25936 0 0 0 -0.26119,0.26119l0,2.72049a0.26119,0.26119 0 0 0 0.26119,0.26119l2.1705,0l0,3.38266s-0.48744,0.16555 -1.8394,0.16555c-1.59108,0 -3.81309,-0.58125 -3.81309,-5.46672s2.31765,-5.5311 4.49,-5.5311c1.88171,0 2.69106,0.33109 3.20608,0.49113a0.26304,0.26304 0 0 0 0.3127,-0.25567l0.61988,-2.63035a0.24096,0.24096 0 0 0 -0.09933,-0.20234c-0.20969,-0.15083 -1.48624,-0.86452 -4.71256,-0.86452c-3.71561,0 -7.5287,1.5819 -7.5287,9.18233s4.36491,8.73535 8.04373,8.73535c3.04422,0 4.89282,-1.3023 4.89282,-1.3023a0.22625,0.22625 0 0 0 0.08461,-0.19681l0,-8.48887a0.26119,0.26119 0 0 0 -0.26119,-0.26119l0.00002,-0.00001l0,0.00001z" class="cls-1" id="svg_11"/>
       <path stroke="null" fill="#100e0f" d="m45.82701,3.6906a0.25936,0.25936 0 0 0 -0.25016,-0.27039l-3.12699,0a0.25936,0.25936 0 0 0 -0.27591,0.27039l0,6.04981l-4.88547,0l0,-6.04981a0.25936,0.25936 0 0 0 -0.25936,-0.26119l-3.12699,0a0.25936,0.25936 0 0 0 -0.26671,0.26119l0,16.39465a0.26119,0.26119 0 0 0 0.25936,0.26304l3.12699,0a0.26119,0.26119 0 0 0 0.25936,-0.26304l0,-7.01366l4.89282,0l0,7.01734a0.26119,0.26119 0 0 0 0.25936,0.26304l3.14355,0a0.26304,0.26304 0 0 0 0.25936,-0.26304l-0.0092,-16.39832l0.00001,0l0,-0.00001z" class="cls-1" id="svg_10"/>
       <path stroke="null" fill="#100e0f" d="m23.04961,5.8335a2.02335,2.02335 0 1 0 -2.02335,2.04359a2.02335,2.02335 0 0 0 2.02335,-2.04359z" class="cls-1" id="svg_9"/>
       <path stroke="null" fill="#100e0f" d="m22.82521,16.62532l0,-7.57284a0.26119,0.26119 0 0 0 -0.25936,-0.26119l-3.12699,0a0.29983,0.29983 0 0 0 -0.27039,0.29246l0,10.85251c0,0.32006 0.19865,0.41387 0.45618,0.41387l2.81429,0c0.30903,0 0.38444,-0.15083 0.38444,-0.41754l0.00184,-3.30726l-0.00001,0.00001l0,-0.00001z" class="cls-1" id="svg_8"/>
       <path stroke="null" fill="#100e0f" d="m57.73901,8.81702l-3.11044,0a0.25936,0.25936 0 0 0 -0.25752,0.26119l0,8.04006a3.52063,3.52063 0 0 1 -1.91298,0.57757c-1.12204,0 -1.42002,-0.50768 -1.42002,-1.60765l0,-7.00998a0.25936,0.25936 0 0 0 -0.25752,-0.26119l-3.15826,0a0.25936,0.25936 0 0 0 -0.25752,0.26119l0,7.54158c0,3.26311 1.81733,4.06141 4.31894,4.06141c2.05094,0 3.70641,-1.13491 3.70641,-1.13491a6.30733,6.30733 0 0 0 0.11404,0.66955a0.27407,0.27407 0 0 0 0.22809,0.14163l2.00864,0a0.26119,0.26119 0 0 0 0.25936,-0.26119l0,-11.01806a0.26304,0.26304 0 0 0 -0.26119,-0.26119l-0.00001,0l-0.00001,0.00001z" class="cls-1" id="svg_7"/>
       <path stroke="null" fill="#100e0f" d="m66.2426,8.4473a5.84197,5.84197 0 0 0 -2.96881,0.78911l0,-5.54582a0.25936,0.25936 0 0 0 -0.25936,-0.26119l-3.14355,0a0.25936,0.25936 0 0 0 -0.25936,0.26119l0,16.39465a0.26119,0.26119 0 0 0 0.25936,0.26304l2.18154,0a0.26304,0.26304 0 0 0 0.22809,-0.13979a5.22392,5.22392 0 0 0 0.13243,-0.756s1.28759,1.21769 3.71928,1.21769c2.8566,0 4.49367,-1.44945 4.49367,-6.50599s-2.60828,-5.71688 -4.38331,-5.71688l-0.00001,-0.00001l0.00001,0.00001zm-1.22689,9.24303a3.73584,3.73584 0 0 1 -1.81182,-0.5224l0,-5.20001a4.14602,4.14602 0 0 1 1.60765,-0.5224c1.1202,-0.09933 2.20729,0.23912 2.20729,2.90994c-0.00735,2.8235 -0.49479,3.38084 -2.00312,3.33484l0.00001,0.00001l0,0.00001z" class="cls-1" id="svg_6"/>
       <path stroke="null" fill="#100e0f" d="m31.83462,8.78944l-2.35076,0l0,-3.10492c0,-0.11772 -0.0607,-0.18394 -0.19681,-0.18394l-3.20793,0c-0.12507,0 -0.18394,0.05518 -0.18394,0.17474l0,3.21713s-1.6058,0.38811 -1.71433,0.41939a0.25936,0.25936 0 0 0 -0.18394,0.25016l0,2.02335a0.26119,0.26119 0 0 0 0.24281,0.25567l1.65547,0l0,4.85236c0,3.60524 2.52918,3.9584 4.23064,3.9584a7.15714,7.15714 0 0 0 1.867,-0.30718a0.24281,0.24281 0 0 0 0.14715,-0.23544l0,-2.21832a0.26304,0.26304 0 0 0 -0.25936,-0.26119c-0.13796,0 -0.48744,0.05518 -0.84797,0.05518c-1.15515,0 -1.54694,-0.53711 -1.54694,-1.2324l0,-4.6114l2.35076,0a0.26119,0.26119 0 0 0 0.25936,-0.26304l0,-2.52551a0.26119,0.26119 0 0 0 -0.26119,-0.26304l0,0.00001l-0.00001,-0.00002z" class="cls-1" id="svg_5"/>
      </g>
     </g>
    </g>
   </g>
  </g>
 </g>

</svg>