<?xml version="1.0" encoding="UTF-8"?>
<svg id="Layer_1" xmlns="http://www.w3.org/2000/svg" xmlns:i="http://ns.adobe.com/AdobeIllustrator/10.0/" version="1.1" viewBox="100 0 550 102">
  <defs>
    <style>
      .st1 {
        fill: #00325D;
      }
    </style>
  </defs>
  <g>
    <path class="st1" d="M144.9,16c-7.6,0-15.3,4-15.3,12.4s9.3,11.6,17.7,13.3c14.7,3.7,36.1,7.9,36.1,27.2s-20.6,32.2-41.3,32.2-37.4-8.6-36.7-32.9h20.8c-.8,10.7,5.3,17.9,16,17.9s19.3-2.5,19.3-12.7-13.8-12.1-22.1-14.2c-13.5-3.3-31.7-9.4-31.7-26.4S127.9,1,147.7,1s33.1,10.2,33.1,29.5h-20c-.8-9.7-6-14.5-15.9-14.5h0Z"/>
    <path class="st1" d="M228.8,101.1c-21.7,0-34.7-14.4-34.7-35.4s13-35.4,34.7-35.4,34.7,14.4,34.7,35.4-13,35.4-34.7,35.4h0ZM228.8,87.7c12.1,0,14.1-11.4,14.1-22.1s-2-22-14.1-22-14.1,11.4-14.1,22,2,22.1,14.1,22.1h0Z"/>
    <path class="st1" d="M294.6,32.2h12.1v13.4h-12.1v53.6h-19.9v-53.6h-10v-13.4h10c-.5-18.9,1.2-31.2,22.8-31.2s7.3.4,10.9.9v12.4c-14.1-1.6-14.3,4.8-13.8,17.9h0Z"/>
    <path class="st1" d="M325.1,19l19.9-7.2v20.4h15v13.4h-15v31c0,8.8,1.3,11.2,8.2,11.2s4.2-.3,6.4-.4v11.7c-2.2,1.1-12.9,2-15.6,2-15.5,0-18.8-8.1-18.8-22.7v-32.9h-13.4v-13.4h13.4v-13.2h0Z"/>
    <path class="st1" d="M379.4,19l19.9-7.2v20.4h15v13.4h-15v31c0,8.8,1.3,11.2,8.2,11.2s4.2-.3,6.4-.4v11.7c-2.3,1.1-12.9,2-15.7,2-15.5,0-18.8-8.1-18.8-22.7v-32.9h-13.4v-13.4h13.4v-13.2h0Z"/>
    <path class="st1" d="M438.7,71c0,8.6,1.2,16.7,11.5,16.7s10.4-2.5,12.3-8.6h17.9c-1.7,16.5-14.6,22-30.2,22-22.9,0-32.1-12.9-32.1-35.2s11.7-35.6,32.1-35.6,22.9,4.3,28.5,16c1.9,3.7,2.8,7.7,3.3,11.9.5,4.2.5,8.4.5,12.8h-43.8ZM461.9,57.7c0-7.3-2-14.1-11.8-14.1s-11.2,6.8-11.5,14.1h23.3Z"/>
    <polygon class="st1" points="510.9 59.6 530.5 31.5 552.7 31.5 529.7 60.8 554.2 99.2 530.9 99.2 510.9 62.5 510.7 62.8 510.7 99.2 490.8 99.2 490.8 2.9 510.7 2.9 510.7 59.3 510.9 59.6 510.9 59.6"/>
  </g>
</svg>