<svg id="Capa_1" data-name="Capa 1" xmlns="http://www.w3.org/2000/svg" viewBox="0 0 236.75 33.82"><defs><style>.cls-1{fill:#53565A;}</style></defs><path id="Trazado_200" data-name="Trazado 200" class="cls-1" d="M194.73,2.09l-5.07,4.42h-4.53l2.38-4.42Zm-6.75,11c-4.16,0-5.62,1.68-5.62,8.61s1.5,8.68,5.65,8.68,5.59-1.78,5.59-8.68-1.42-8.61-5.62-8.61m0,22.8c-8.43,0-12.08-4.45-12.08-14.2S179.45,7.59,188,7.59,200,12,200,21.71c0,9.93-3.47,14.2-12.05,14.2m45.64-.51L223.29,20.7l-1.89-2.81-.09,0,0,3.4V35.41h-5.84V8.14H221l10,14L233,25l.09-.05L233,21.54V8.14h5.88V35.41ZM153.42,8.14h6.76V35.41h-6.76Zm-23,13,8.4,14.29h-7.52l-3.9-7.18-1.51-3h-.13l-1.55,3.07-3.79,7.14h-7.73l8.27-14.13L112.86,8.13h7.94l3.41,6.18,1.55,3h.13l1.55-3,3.46-6.17h7.6ZM85.77,16.63l-2.6,8.27h7.1l-2.52-8.23-.89-3.32h-.13ZM91.91,30.2H81.53l-1.64,5.21h-7L83,8.14H90.7L101,35.41H93.51ZM48.85,13.48H44.73V20.7h4c2.86,0,3.91-.84,3.91-3.69,0-2.65-1-3.53-3.82-3.53m6,10.75,6.63,11.18H53.72L48.8,25.54H44.73v9.87H38.17V8.14H48.84c7.15,0,10.72,2.77,10.72,8.57,0,3.84-1.68,6.56-4.71,7.52M16.54,13.9V35.41H9.86V13.9H2.13l.12-5.76H24.11l.12,5.76Z" transform="translate(-2.13 -2.09)"/></svg>