<svg width="146" height="40" viewBox="0 0 146 40" fill="none" xmlns="http://www.w3.org/2000/svg">
<path d="M14.4858 30.734H7.3807L0 1.27222H7.2626L11.3367 19.8297L16.0407 1.27222H21.3351L26.0391 19.8297L30.1526 1.27222H37.3758L30.0345 30.734H22.9294L18.6978 14.1151L14.4858 30.734Z" fill="black"/>
<path d="M86.5603 9.08691C88.6466 9.08691 90.3196 9.87445 91.5792 11.4697C92.8389 13.065 93.4884 15.2862 93.4884 18.1536V30.7542H87.2492V19.0421C87.2492 17.9719 86.9933 17.1642 86.5013 16.5786C85.9896 16.0132 85.3007 15.7103 84.4347 15.7103C83.4506 15.7103 82.7027 16.0334 82.1516 16.6997C81.6202 17.3661 81.3446 18.3152 81.3446 19.547V30.7542H75.1055V9.69271H81.3446V11.7928C82.4665 9.99561 84.1985 9.08691 86.5603 9.08691Z" fill="black"/>
<path d="M108.88 20.2134L115.473 30.734H108.467L103.133 21.7683V30.734H96.874V1.27222H103.133V18.4768L107.975 9.69276H115.198L108.88 20.2134Z" fill="black"/>
<path d="M123.523 0H117.284V30.734H123.523V0Z" fill="black"/>
<path d="M136.139 21.8893L139.072 9.69263H146L139.564 30.4108C138.56 33.5811 137.143 35.863 135.313 37.2765C133.482 38.6698 131.101 39.316 128.208 39.1746V32.6119C129.546 32.6119 130.55 32.4301 131.219 32.0666C131.888 31.7032 132.439 31.0368 132.872 30.0877L125.334 9.69263H132.341L136.139 21.8893Z" fill="black"/>
<path d="M74.1215 15.8111C73.2359 10.258 68.1186 6.50209 62.7258 7.39059C62.647 7.41078 62.5683 7.41078 62.4896 7.43097C59.1043 8.05696 55.8961 10.7225 53.1997 15.1851C47.984 11.1263 44.2051 10.7426 41.922 11.1667C36.5292 12.136 32.9274 17.4468 33.8722 22.9595C34.7185 27.8866 38.9107 31.3801 43.654 31.3801C44.2248 31.3801 44.7956 31.3195 45.386 31.2185C48.7713 30.6127 51.9795 27.927 54.6759 23.4643C59.8719 27.5232 63.6508 27.9068 65.9339 27.503L66.052 27.4828C71.3661 26.5135 74.9875 21.2835 74.1215 15.8111ZM68.0792 20.2536C67.351 21.3239 66.2685 22.0306 65.0285 22.2527C63.1784 22.596 60.2655 21.2633 57.1952 18.7189C59.7144 14.2159 61.9582 12.9639 63.3949 12.7014C64.6349 12.4793 65.8945 12.762 66.918 13.5091C67.9611 14.2563 68.65 15.3669 68.8665 16.6391C69.083 17.891 68.8074 19.1834 68.0792 20.2536ZM38.9107 22.1114C38.6745 20.8392 38.9304 19.5469 39.6389 18.4766C40.3475 17.4064 41.43 16.6794 42.6699 16.4371L42.9652 16.3765C43.1029 16.3563 43.2604 16.3563 43.4179 16.3563C45.2679 16.3563 47.9053 17.6487 50.6608 19.9305C48.1415 24.4336 45.8978 25.6856 44.461 25.9481H44.4413C41.8827 26.4731 39.4028 24.7365 38.9107 22.1114Z" fill="#218CFF"/>
</svg>
